<svg width="31" height="29" viewBox="0 0 31 29" fill="none" xmlns="http://www.w3.org/2000/svg">
<g clip-path="url(#clip0_1_220)">
<path d="M26.7633 0.18457H4.66772C3.64884 0.18457 2.67184 0.588741 1.95139 1.30818C1.23093 2.02762 0.826172 3.00339 0.826172 4.02083V25.0408C0.826172 26.0582 1.23093 27.034 1.95139 27.7534C2.67184 28.4729 3.64884 28.877 4.66772 28.877H26.7633C27.7821 28.877 28.7591 28.4729 29.4796 27.7534C30.2 27.034 30.6048 26.0582 30.6048 25.0408V3.99813C30.5988 2.98463 30.1913 2.01468 29.4715 1.30014C28.7517 0.585608 27.7782 0.184553 26.7633 0.18457ZM24.8422 20.0014H14.5222V23.1794L6.56601 19.3432L14.5222 15.5069V18.6735H24.8422V20.0014ZM16.8861 14.5421V10.9783H6.56601V9.48011H16.8861V5.8595L24.8422 10.1838L16.8861 14.5421Z" fill="white"/>
</g>
<defs>
<clipPath id="clip0_1_220">
<rect width="29.7787" height="28.7152" fill="white" transform="translate(0.826172 0.161865)"/>
</clipPath>
</defs>
</svg>
