<svg width="25" height="28" viewBox="0 0 25 28" fill="none" xmlns="http://www.w3.org/2000/svg">
<g clip-path="url(#clip0_1_213)">
<path d="M23.7846 0.0800781H1.11784C0.878361 0.0800781 0.648723 0.173473 0.479384 0.339722C0.310045 0.505971 0.214844 0.731454 0.214844 0.966566V26.8566C0.214844 27.0917 0.310045 27.3172 0.479384 27.4834C0.648723 27.6497 0.878361 27.7431 1.11784 27.7431H23.7846C24.0241 27.7431 24.2538 27.6497 24.4231 27.4834C24.5924 27.3172 24.6876 27.0917 24.6876 26.8566V0.966566C24.6876 0.731454 24.5924 0.505971 24.4231 0.339722C24.2538 0.173473 24.0241 0.0800781 23.7846 0.0800781ZM3.54901 4.53525C3.54901 4.32425 3.63445 4.12189 3.78642 3.9727C3.93839 3.8235 4.14439 3.73969 4.35931 3.73969H20.5664C20.6737 3.73818 20.7804 3.75765 20.8801 3.79695C20.9797 3.83626 21.0704 3.89461 21.1469 3.96864C21.2234 4.04266 21.284 4.13089 21.3255 4.22816C21.3669 4.32543 21.3883 4.42981 21.3882 4.53525V9.93374C21.3882 10.1478 21.3016 10.353 21.1474 10.5043C20.9933 10.6557 20.7843 10.7407 20.5664 10.7407H4.35931C4.25191 10.7407 4.14552 10.7197 4.04644 10.679C3.94736 10.6384 3.85758 10.5787 3.78218 10.5037C3.70678 10.4286 3.64727 10.3395 3.60723 10.2417C3.5672 10.1438 3.54748 10.0392 3.54901 9.93374V4.53525ZM11.5019 23.6289C11.5019 23.8399 11.4167 24.0422 11.2648 24.1914C11.1128 24.3406 10.9065 24.4244 10.6916 24.4244H4.30137C4.08645 24.4244 3.88045 24.3406 3.72848 24.1914C3.57651 24.0422 3.49107 23.8399 3.49107 23.6289V20.1284C3.49107 19.9174 3.57651 19.715 3.72848 19.5658C3.88045 19.4166 4.08645 19.3328 4.30137 19.3328H10.6916C10.9065 19.3328 11.1128 19.4166 11.2648 19.5658C11.4167 19.715 11.5019 19.9174 11.5019 20.1284V23.6289ZM11.5019 17.1393C11.5019 17.3503 11.4167 17.5527 11.2648 17.7019C11.1128 17.8511 10.9065 17.9349 10.6916 17.9349H4.30137C4.08645 17.9349 3.88045 17.8511 3.72848 17.7019C3.57651 17.5527 3.49107 17.3503 3.49107 17.1393V13.6388C3.49107 13.4278 3.57651 13.2255 3.72848 13.0763C3.88045 12.9271 4.08645 12.8432 4.30137 12.8432H10.6916C10.9065 12.8432 11.1128 12.9271 11.2648 13.0763C11.4167 13.2255 11.5019 13.4278 11.5019 13.6388V17.1393ZM21.4114 23.6289C21.4114 23.8399 21.326 24.0422 21.174 24.1914C21.022 24.3406 20.816 24.4244 20.6011 24.4244H14.2109C13.996 24.4244 13.79 24.3406 13.638 24.1914C13.486 24.0422 13.4006 23.8399 13.4006 23.6289V20.1284C13.4006 19.9174 13.486 19.715 13.638 19.5658C13.79 19.4166 13.996 19.3328 14.2109 19.3328H20.6011C20.816 19.3328 21.022 19.4166 21.174 19.5658C21.326 19.715 21.4114 19.9174 21.4114 20.1284V23.6289ZM21.4114 17.1393C21.4114 17.3503 21.326 17.5527 21.174 17.7019C21.022 17.8511 20.816 17.9349 20.6011 17.9349H14.2109C13.996 17.9349 13.79 17.8511 13.638 17.7019C13.486 17.5527 13.4006 17.3503 13.4006 17.1393V13.6388C13.4006 13.4278 13.486 13.2255 13.638 13.0763C13.79 12.9271 13.996 12.8432 14.2109 12.8432H20.6011C20.816 12.8432 21.022 12.9271 21.174 13.0763C21.326 13.2255 21.4114 13.4278 21.4114 13.6388V17.1393Z" fill="white"/>
</g>
<defs>
<clipPath id="clip0_1_213">
<rect width="24.4611" height="27.6516" fill="white" transform="translate(0.214844 0.0800781)"/>
</clipPath>
</defs>
</svg>
