<svg width="32" height="24" viewBox="0 0 32 24" fill="none" xmlns="http://www.w3.org/2000/svg">
<g clip-path="url(#clip0_1_206)">
<path d="M28.3234 6.47402C28.4115 6.47111 28.4982 6.49661 28.5695 6.54647C28.6408 6.59633 28.6928 6.66768 28.717 6.74917C30.3405 6.74917 30.6691 6.44723 30.6691 6.44723C30.6691 6.44723 30.833 6.35551 30.8161 5.60798C30.7992 4.86045 28.8969 4.71516 28.331 4.86045C27.765 5.00574 28.331 6.06007 28.331 6.06007C28.331 6.06007 28.1198 6.10634 28.0776 6.18263C28.0151 6.306 28.1308 6.48132 28.3234 6.47402Z" fill="white"/>
<path d="M31.1702 10.2235C30.8045 9.7365 30.1253 8.79498 29.9387 8.53444C29.8297 8.34694 29.6177 8.06287 29.2055 7.68301C28.7016 7.2137 28.2311 6.71231 27.7974 6.18226L27.4696 5.77644C27.4696 5.77644 24.6661 0.87486 23.7673 0.512051C23.7673 0.512051 23.7572 0.268555 16.2454 0.268555C8.73352 0.268555 8.72254 0.501499 8.72254 0.501499C7.82378 0.861062 5.0211 5.77725 5.0211 5.77725L4.69336 6.18307C4.69336 6.18307 4.67224 6.21067 4.6317 6.25937C4.63237 6.23302 4.62658 6.20688 4.6148 6.18307C4.5751 6.10678 4.36139 6.06051 4.36139 6.06051C4.36139 6.06051 4.92734 5.00536 4.36139 4.86089C3.79545 4.71642 1.89236 4.86089 1.87631 5.60843C1.86026 6.35596 2.02329 6.44767 2.02329 6.44767C2.02329 6.44767 2.35187 6.74961 3.97537 6.74961C3.99963 6.66812 4.05156 6.59678 4.12288 6.54692C4.19421 6.49706 4.28084 6.47155 4.369 6.47446C4.39905 6.47509 4.42902 6.47098 4.45769 6.46228C4.08937 6.88988 3.69684 7.29768 3.28188 7.68382C3.02541 7.91191 2.79852 8.1689 2.60612 8.44921C2.60612 8.44921 1.7513 9.63991 1.32388 10.2056C0.896469 10.7714 0.722463 14.4076 0.888022 16.6218C0.910829 16.9213 0.927723 17.1859 0.942083 17.4204V22.6077C0.942083 23.1929 1.45903 23.6677 2.09593 23.6677H4.72208C5.35897 23.6677 5.87593 23.1929 5.87593 22.6077V21.6451H6.74427C6.80083 21.6463 6.85708 21.6367 6.90978 21.6169C6.96247 21.5971 7.01058 21.5675 7.05132 21.5298C7.09207 21.4921 7.12465 21.447 7.14719 21.3971C7.16973 21.3473 7.18179 21.2936 7.18266 21.2393V21.1816L25.3494 21.0956V21.2393C25.3503 21.2935 25.3623 21.3471 25.3848 21.3969C25.4073 21.4467 25.4398 21.4918 25.4805 21.5295C25.5211 21.5672 25.5691 21.5968 25.6217 21.6167C25.6743 21.6365 25.7305 21.6462 25.787 21.6451H26.6275V22.6077C26.6275 23.1929 27.1436 23.6677 27.7805 23.6677H30.4075C31.0444 23.6677 31.5605 23.1929 31.5605 22.6077V17.4204H31.5529C31.5672 17.1891 31.585 16.9294 31.6069 16.6356C31.7725 14.4246 31.5976 10.79 31.1702 10.2235ZM5.61154 5.70663L7.94373 1.87401C7.9902 1.79883 8.05484 1.73552 8.13219 1.68946C8.20953 1.6434 8.2973 1.61594 8.38804 1.60941C11.7981 1.34724 16.0975 1.34968 16.2437 1.34968C16.3898 1.34968 20.6927 1.34968 24.0993 1.61022C24.1891 1.61638 24.276 1.6431 24.3529 1.68815C24.4297 1.73319 24.4943 1.79525 24.5411 1.86914L26.9299 5.70501C27.0405 5.88276 26.8885 6.09948 26.6562 6.09298L16.3231 5.80079C16.1592 5.79673 15.9953 5.79673 15.8306 5.80079L5.88184 6.09217C5.65293 6.09623 5.50004 5.88195 5.61154 5.70663ZM23.6119 10.3874L24.9229 11.5911C24.9654 11.6294 24.9983 11.6765 25.0191 11.7288C25.0399 11.7811 25.048 11.8373 25.0428 11.8931C25.004 12.3038 24.8739 13.3273 24.5453 13.8767C24.1229 14.5748 24.0503 15.8734 16.2834 15.8247C8.51643 15.875 8.4421 14.5764 8.02144 13.8767C7.69032 13.3273 7.56362 12.3038 7.52392 11.8931C7.51908 11.8372 7.52743 11.7811 7.54834 11.7288C7.56926 11.6765 7.6022 11.6295 7.64471 11.5911L8.95483 10.3874C9.07033 10.2824 9.21891 10.2173 9.37717 10.2024C12.2491 9.91587 15.785 9.94996 16.2859 9.95889C16.7868 9.9524 20.3185 9.91831 23.1946 10.2024C23.3512 10.2181 23.4979 10.2831 23.6119 10.3874ZM2.28683 10.747C2.03849 10.536 2.11789 9.93535 2.23784 9.46216C2.26057 9.3816 2.3011 9.3067 2.35666 9.24255C2.41222 9.17839 2.48151 9.12649 2.55982 9.09037C2.63812 9.05425 2.72361 9.03476 2.81045 9.03323C2.8973 9.03169 2.98347 9.04816 3.0631 9.08149C3.23964 9.1521 3.43561 9.22272 3.62567 9.27791L3.79461 9.32336L3.81065 9.32742C5.63265 9.79493 8.30188 10.0263 8.30188 10.0263L6.68514 11.372C6.68514 11.372 2.72354 11.1187 2.28683 10.747ZM26.0049 19.9706C25.9705 20.0123 25.9268 20.0461 25.8772 20.0697C25.8276 20.0933 25.7731 20.106 25.7177 20.107L22.9362 20.176C22.8862 20.1774 22.8365 20.1693 22.7898 20.1522C22.7431 20.1351 22.7004 20.1092 22.6642 20.0762L22.5493 19.9706C22.4784 19.906 22.3843 19.8703 22.2866 19.8708H19.1798C19.0822 19.8706 18.9882 19.9063 18.9171 19.9706L18.6975 20.1727C18.6266 20.2374 18.5325 20.2731 18.4348 20.2726H14.0585C13.9608 20.273 13.8667 20.2372 13.7958 20.1727L13.5761 19.9706C13.5052 19.9062 13.4111 19.8704 13.3134 19.8708H10.2033C10.1056 19.8706 10.0116 19.9063 9.94058 19.9706L9.8257 20.0762C9.7895 20.1093 9.74681 20.1351 9.70012 20.1523C9.65343 20.1694 9.60367 20.1775 9.55371 20.176L6.77214 20.107C6.71687 20.1061 6.6625 20.0934 6.61298 20.0698C6.56345 20.0462 6.52 20.0124 6.48579 19.9706C6.4565 19.9352 6.43508 19.8944 6.42287 19.8507C6.41066 19.8071 6.40791 19.7614 6.4148 19.7167C6.42169 19.672 6.43807 19.629 6.46292 19.5906C6.48777 19.5522 6.52057 19.5191 6.55928 19.4934C7.0661 19.1444 8.09493 18.4739 8.60343 18.4171C9.14573 18.3563 11.0623 18.3912 11.8547 18.409C11.9963 18.4141 12.1364 18.4395 12.2702 18.4845C12.4186 18.5188 12.5714 18.5325 12.7238 18.5251H19.766C19.9185 18.5325 20.0712 18.5188 20.2196 18.4845C20.3535 18.4397 20.4936 18.4142 20.6352 18.409C21.4284 18.3912 23.3441 18.3563 23.8873 18.4171C24.3941 18.4739 25.4246 19.1476 25.9306 19.4934C25.9693 19.5191 26.002 19.5522 26.0269 19.5906C26.0518 19.629 26.0682 19.6719 26.0751 19.7166C26.0821 19.7613 26.0795 19.8069 26.0674 19.8506C26.0553 19.8943 26.0341 19.9351 26.0049 19.9706ZM30.2605 10.747C29.8238 11.1187 25.8613 11.372 25.8613 11.372L24.2446 10.0263C24.2446 10.0263 26.913 9.79493 28.735 9.32742L28.751 9.32336L28.92 9.27791C29.099 9.22597 29.2832 9.16022 29.4521 9.09367C29.5366 9.05924 29.6278 9.04277 29.7196 9.04537C29.8113 9.04798 29.9013 9.0696 29.9836 9.10876C30.0658 9.14791 30.1382 9.20368 30.1959 9.27224C30.2536 9.3408 30.2953 9.42054 30.3179 9.50599C30.4311 9.97512 30.5004 10.5425 30.2605 10.747Z" fill="white"/>
<path d="M14.9977 11.0469C14.7993 11.084 14.6056 11.1414 14.4199 11.2182C14.3067 11.2629 14.2031 11.3273 14.1141 11.4081C14.0845 11.4318 14.0607 11.4614 14.0444 11.495C14.028 11.5285 14.0195 11.565 14.0195 11.6021C14.0195 11.6391 14.028 11.6757 14.0444 11.7092C14.0607 11.7427 14.0845 11.7724 14.1141 11.7961C14.2028 11.8772 14.3065 11.9417 14.4199 11.986C14.6057 12.0623 14.7994 12.1194 14.9977 12.1564C15.7951 12.3036 16.6144 12.3036 17.4118 12.1564C17.6101 12.1193 17.8038 12.0622 17.9896 11.986C18.1026 11.9415 18.2061 11.8771 18.2945 11.7961C18.3244 11.7725 18.3485 11.7429 18.365 11.7094C18.3815 11.6758 18.3901 11.6392 18.3901 11.6021C18.3901 11.565 18.3815 11.5283 18.365 11.4948C18.3485 11.4612 18.3244 11.4316 18.2945 11.4081C18.2059 11.3269 18.1022 11.2625 17.9887 11.2182C17.8034 11.1413 17.61 11.0838 17.4118 11.0469C16.6144 10.8997 15.7951 10.8997 14.9977 11.0469ZM14.9977 11.7076C14.9474 11.7189 14.895 11.7172 14.8456 11.7027C14.7922 11.6928 14.7406 11.675 14.6928 11.65C14.6843 11.6453 14.6761 11.6401 14.6683 11.6345C14.6402 11.6178 14.6179 11.5934 14.6041 11.5646C14.5903 11.5357 14.5856 11.5036 14.5905 11.4722C14.6041 11.4065 14.6699 11.3342 14.8659 11.2604C15.198 11.1623 15.5412 11.1026 15.888 11.0826C15.4175 11.4332 15.2122 11.5834 15.1075 11.6508C15.0751 11.676 15.0382 11.6953 14.9985 11.7076H14.9977ZM17.5419 11.2596C17.7379 11.3334 17.8038 11.4057 17.8173 11.4714C17.8216 11.5027 17.8166 11.5346 17.8029 11.5634C17.7891 11.5921 17.7672 11.6165 17.7396 11.6337C17.7317 11.6393 17.7235 11.6445 17.7151 11.6491C17.6672 11.6742 17.6157 11.692 17.5622 11.7019C17.5125 11.7164 17.4598 11.7181 17.4093 11.7068C17.3696 11.6941 17.3327 11.6745 17.3003 11.6491C17.1973 11.5818 16.9895 11.4316 16.5198 11.081C16.867 11.1012 17.2104 11.1611 17.5427 11.2596H17.5419ZM16.7057 11.594L16.7775 11.65C16.7844 11.6548 16.7899 11.6612 16.7935 11.6686C16.7948 11.6731 16.7948 11.6779 16.7935 11.6824C16.7714 11.7368 16.7371 11.7859 16.693 11.8261C16.6581 11.8355 16.622 11.8402 16.5857 11.8399C16.5139 11.8456 16.3889 11.8545 16.2014 11.8545C16.0138 11.8545 15.8888 11.8456 15.8162 11.8399C15.7802 11.8402 15.7444 11.8356 15.7098 11.8261C15.6657 11.7859 15.6313 11.7368 15.6092 11.6824C15.6079 11.6779 15.6079 11.6731 15.6092 11.6686C15.6129 11.6612 15.6184 11.6548 15.6253 11.65C15.6371 11.6394 15.6582 11.6232 15.6962 11.594C15.8195 11.4956 15.9499 11.4058 16.0865 11.3253C16.1207 11.3062 16.1593 11.2955 16.1988 11.2945C16.2384 11.2957 16.2769 11.3063 16.3112 11.3253C16.4495 11.4055 16.5817 11.4953 16.7065 11.594H16.7057Z" fill="white"/>
</g>
<defs>
<clipPath id="clip0_1_206">
<rect width="30.8422" height="23.3975" fill="white" transform="translate(0.826172 0.270508)"/>
</clipPath>
</defs>
</svg>
