<svg width="36" height="37" viewBox="0 0 36 37" fill="none" xmlns="http://www.w3.org/2000/svg">
<rect y="0.412964" width="36" height="36" rx="9" fill="white"/>
<g clip-path="url(#clip0_41_397)">
<path d="M25.5707 27.413H11.4155C11.0395 27.4113 10.6794 27.2705 10.4142 27.0215C10.1489 26.7725 10 26.4356 10 26.0843V9.74168C10 9.3904 10.1489 9.05339 10.4142 8.80439C10.6794 8.55539 11.0395 8.41466 11.4155 8.41296H25.5707C25.7575 8.41296 25.9425 8.44735 26.1151 8.51412C26.2876 8.5809 26.4444 8.67878 26.5765 8.80216C26.7086 8.92554 26.8133 9.07199 26.8848 9.23319C26.9563 9.3944 26.9931 9.5672 26.9931 9.74168V26.0843C26.9931 26.2588 26.9563 26.4315 26.8848 26.5927C26.8133 26.7539 26.7086 26.9004 26.5765 27.0238C26.4444 27.1472 26.2876 27.2451 26.1151 27.3118C25.9425 27.3786 25.7575 27.413 25.5707 27.413ZM11.4155 9.05486C11.2217 9.05655 11.0364 9.12965 10.9 9.25827C10.7636 9.38689 10.6871 9.56063 10.6871 9.74168V26.0843C10.6871 26.2653 10.7636 26.439 10.9 26.5676C11.0364 26.6963 11.2217 26.7694 11.4155 26.7711H25.5707C25.6673 26.7711 25.7629 26.7533 25.8521 26.7188C25.9413 26.6843 26.0223 26.6337 26.0906 26.5699C26.1589 26.5061 26.2131 26.4304 26.25 26.3471C26.287 26.2637 26.306 26.1745 26.306 26.0843V9.74168C26.306 9.65149 26.287 9.56217 26.25 9.47884C26.2131 9.39551 26.1589 9.31981 26.0906 9.25603C26.0223 9.19226 25.9413 9.14167 25.8521 9.10716C25.7629 9.07264 25.6673 9.05486 25.5707 9.05486H11.4155Z" fill="#30363A"/>
<path d="M23.5644 14.787H13.4153C13.1413 14.787 12.8784 14.6857 12.684 14.5053C12.4896 14.325 12.3795 14.0801 12.3777 13.8241V10.9805C12.3795 10.7246 12.4896 10.4797 12.684 10.2993C12.8784 10.1189 13.1413 10.0177 13.4153 10.0177H23.5644C23.8378 10.0177 24.1 10.1191 24.2933 10.2997C24.4866 10.4803 24.5952 10.7252 24.5952 10.9805V13.8241C24.5952 14.0795 24.4866 14.3244 24.2933 14.5049C24.1 14.6855 23.8378 14.787 23.5644 14.787ZM13.4153 10.6596C13.3696 10.6587 13.3242 10.6664 13.2817 10.6822C13.2392 10.6979 13.2005 10.7214 13.1679 10.7513C13.1352 10.7812 13.1093 10.8169 13.0916 10.8562C13.0739 10.8956 13.0648 10.9378 13.0648 10.9805V13.8241C13.0648 13.8668 13.0739 13.9091 13.0916 13.9484C13.1093 13.9878 13.1352 14.0235 13.1679 14.0534C13.2005 14.0833 13.2392 14.1067 13.2817 14.1225C13.3242 14.1382 13.3696 14.1459 13.4153 14.1451H23.5644C23.6556 14.1451 23.7429 14.1113 23.8074 14.0511C23.8718 13.9909 23.908 13.9092 23.908 13.8241V10.9805C23.908 10.8954 23.8718 10.8138 23.8074 10.7536C23.7429 10.6934 23.6556 10.6596 23.5644 10.6596H13.4153Z" fill="#30363A"/>
<path d="M17.1671 20.4228H13.5253C13.2209 20.4228 12.929 20.3098 12.7138 20.1088C12.4986 19.9078 12.3777 19.6351 12.3777 19.3508V17.2133C12.3795 16.9301 12.5012 16.6591 12.7162 16.4595C12.9312 16.2598 13.2221 16.1478 13.5253 16.1478H17.1671C17.4696 16.1478 17.7598 16.26 17.9737 16.4599C18.1876 16.6597 18.3078 16.9307 18.3078 17.2133V19.3508C18.3087 19.4913 18.2798 19.6305 18.2229 19.7606C18.166 19.8906 18.0821 20.0088 17.9761 20.1084C17.8701 20.208 17.7441 20.2871 17.6052 20.3411C17.4664 20.395 17.3175 20.4228 17.1671 20.4228ZM13.5253 16.7897C13.4043 16.7896 13.2882 16.8341 13.2021 16.9133C13.116 16.9926 13.0666 17.1004 13.0648 17.2133V19.3508C13.0648 19.4649 13.1133 19.5743 13.1997 19.6549C13.286 19.7356 13.4031 19.7809 13.5253 19.7809H17.1671C17.288 19.7792 17.4034 19.7331 17.4882 19.6527C17.5731 19.5722 17.6206 19.4638 17.6206 19.3508V17.2133C17.6188 17.1015 17.5705 16.9947 17.4858 16.9156C17.4012 16.8365 17.2868 16.7913 17.1671 16.7897H13.5253Z" fill="#30363A"/>
<path d="M23.4679 20.4228H19.826C19.6756 20.4228 19.5267 20.395 19.3879 20.3411C19.2491 20.2871 19.123 20.208 19.017 20.1084C18.911 20.0088 18.8271 19.8906 18.7702 19.7606C18.7133 19.6305 18.6844 19.4913 18.6853 19.3508V17.2133C18.6853 16.9307 18.8055 16.6597 19.0194 16.4599C19.2333 16.26 19.5235 16.1478 19.826 16.1478H23.4679C23.7704 16.1478 24.0606 16.26 24.2745 16.4599C24.4884 16.6597 24.6085 16.9307 24.6085 17.2133V19.3508C24.6094 19.4913 24.5806 19.6305 24.5237 19.7606C24.4668 19.8906 24.3829 20.0088 24.2769 20.1084C24.1709 20.208 24.0448 20.2871 23.906 20.3411C23.7671 20.395 23.6183 20.4228 23.4679 20.4228ZM19.826 16.7897C19.7057 16.7897 19.5904 16.8343 19.5053 16.9138C19.4203 16.9932 19.3725 17.101 19.3725 17.2133V19.3508C19.3716 19.407 19.3826 19.4628 19.405 19.5149C19.4274 19.5671 19.4607 19.6145 19.5029 19.6545C19.5451 19.6946 19.5954 19.7263 19.6509 19.748C19.7063 19.7697 19.7659 19.7809 19.826 19.7809H23.4679C23.528 19.7809 23.5875 19.7697 23.643 19.748C23.6985 19.7263 23.7488 19.6946 23.791 19.6545C23.8332 19.6145 23.8665 19.5671 23.8889 19.5149C23.9113 19.4628 23.9223 19.407 23.9214 19.3508V17.2133C23.9214 17.101 23.8736 16.9932 23.7886 16.9138C23.7035 16.8343 23.5882 16.7897 23.4679 16.7897H19.826Z" fill="#30363A"/>
<path d="M17.2426 25.3332H13.4702C13.1841 25.3332 12.9097 25.227 12.7073 25.038C12.505 24.849 12.3914 24.5927 12.3914 24.3254V22.066C12.3932 21.7992 12.5074 21.5439 12.7093 21.3552C12.9112 21.1666 13.1846 21.0599 13.4702 21.0582H17.2426C17.5287 21.0582 17.8031 21.1644 18.0055 21.3534C18.2078 21.5424 18.3214 21.7987 18.3214 22.066V24.3447C18.316 24.6086 18.2 24.8601 17.9982 25.0449C17.7965 25.2297 17.5252 25.3333 17.2426 25.3332ZM13.4702 21.7001C13.3669 21.7018 13.2683 21.7409 13.1952 21.8091C13.1221 21.8774 13.0803 21.9695 13.0785 22.066V24.3447C13.0785 24.3928 13.0886 24.4403 13.1083 24.4847C13.128 24.5291 13.1568 24.5695 13.1932 24.6034C13.2296 24.6374 13.2728 24.6644 13.3203 24.6827C13.3678 24.7011 13.4187 24.7106 13.4702 24.7106H17.2426C17.2943 24.7115 17.3457 24.7026 17.3936 24.6845C17.4415 24.6664 17.4851 24.6395 17.5216 24.6054C17.5582 24.5712 17.587 24.5305 17.6064 24.4858C17.6257 24.441 17.6352 24.393 17.6343 24.3447V22.0852C17.6343 21.9882 17.593 21.8952 17.5196 21.8265C17.4461 21.7579 17.3465 21.7194 17.2426 21.7194L13.4702 21.7001Z" fill="#30363A"/>
<path d="M23.5297 25.3332H19.7572C19.4753 25.3332 19.2047 25.2295 19.0041 25.0445C18.8035 24.8595 18.6889 24.608 18.6853 24.3447V22.0852C18.6853 21.8191 18.798 21.5637 18.9988 21.3749C19.1997 21.1861 19.4723 21.0791 19.7572 21.0775H23.5297C23.8158 21.0775 24.0902 21.1836 24.2925 21.3726C24.4948 21.5616 24.6085 21.818 24.6085 22.0852V24.3447C24.6031 24.6086 24.4871 24.86 24.2854 25.0449C24.0836 25.2297 23.8123 25.3332 23.5297 25.3332ZM19.7572 21.7001C19.6546 21.7018 19.5567 21.7411 19.4848 21.8095C19.4128 21.8779 19.3724 21.9701 19.3724 22.066V24.3447C19.3715 24.3924 19.3808 24.4399 19.3998 24.4842C19.4187 24.5286 19.4469 24.569 19.4827 24.603C19.5185 24.6371 19.5613 24.6641 19.6084 24.6826C19.6555 24.7011 19.7061 24.7106 19.7572 24.7106H23.5297C23.5814 24.7115 23.6328 24.7026 23.6807 24.6845C23.7286 24.6664 23.7722 24.6395 23.8087 24.6054C23.8453 24.5712 23.8741 24.5305 23.8935 24.4857C23.9128 24.441 23.9223 24.393 23.9214 24.3447V22.0852C23.9214 21.9882 23.8801 21.8952 23.8066 21.8265C23.7332 21.7579 23.6336 21.7193 23.5297 21.7193L19.7572 21.7001Z" fill="#30363A"/>
</g>
<defs>
<clipPath id="clip0_41_397">
<rect width="17" height="19" fill="white" transform="translate(10 8.41296)"/>
</clipPath>
</defs>
</svg>
