<svg width="14" height="16" viewBox="0 0 14 16" fill="none" xmlns="http://www.w3.org/2000/svg">
<g clip-path="url(#clip0_1_188)">
<path d="M9.8098 6.15911C9.80868 6.25787 9.8268 6.35581 9.86301 6.44659C9.89921 6.53737 9.95273 6.61899 10.02 6.68623C10.1503 6.82676 10.326 6.9077 10.5105 6.91212C10.6987 6.90557 10.8782 6.82522 11.0151 6.68623C11.142 6.54476 11.2123 6.35559 11.2112 6.15911C11.2133 5.7627 11.1427 5.36978 11.0032 5.0028C10.8637 4.63581 10.6582 4.30203 10.3985 4.02058C10.1366 3.74142 9.82592 3.52055 9.48443 3.37066C9.14294 3.22076 8.77727 3.14477 8.4084 3.14706C8.22557 3.14588 8.04958 3.22157 7.91795 3.35793C7.85024 3.42802 7.79664 3.5123 7.76048 3.60556C7.72432 3.69882 7.70634 3.79905 7.7077 3.90007C7.70658 3.99883 7.7247 4.09677 7.7609 4.18755C7.79711 4.27833 7.85063 4.35995 7.91795 4.42719C8.04817 4.56772 8.2239 4.64866 8.4084 4.65308C8.59284 4.65194 8.77567 4.68996 8.94642 4.7649C9.11716 4.83985 9.27248 4.95026 9.40343 5.08984C9.53331 5.23057 9.63605 5.39748 9.70579 5.58097C9.77553 5.76446 9.81087 5.96091 9.8098 6.15911ZM8.4084 0.135012H7.91795C7.73435 0.151178 7.56362 0.242917 7.44143 0.391056C7.32041 0.546426 7.26014 0.746149 7.27327 0.948278C7.2996 1.14522 7.38875 1.32621 7.52551 1.46032C7.59588 1.52689 7.67823 1.57728 7.76741 1.60836C7.85658 1.63944 7.95069 1.65055 8.04402 1.64104H8.4084C9.52305 1.64209 10.5917 2.1188 11.3794 2.96634C12.168 3.81283 12.6116 4.96124 12.6126 6.15911V6.55069C12.5995 6.75282 12.6597 6.95254 12.7808 7.10791C12.8392 7.18389 12.9119 7.24592 12.9939 7.29001C13.076 7.33409 13.1656 7.35929 13.2573 7.36396C13.4334 7.36535 13.6035 7.29544 13.7338 7.16816C13.8624 7.04364 13.9424 6.8715 13.958 6.68623V6.15911C13.9586 5.36778 13.814 4.58412 13.5327 3.85282C13.2514 3.12153 12.8388 2.45695 12.3184 1.89708C11.7974 1.33784 11.1789 0.894378 10.4984 0.59204C9.81795 0.289702 9.08873 0.134389 8.35238 0.135012M12.4865 12.9362C12.5062 13.0355 12.5062 13.1382 12.4865 13.2374C12.4434 13.3318 12.3867 13.4182 12.3184 13.4935C12.2408 13.5638 12.15 13.6152 12.0521 13.644C11.9512 13.6735 11.8447 13.6735 11.7437 13.644C9.12552 13.2819 6.69186 12.0007 4.82082 9.9995C2.9499 7.98572 1.74819 5.36581 1.4014 2.54466C1.38063 2.43534 1.38063 2.32265 1.4014 2.21333C1.43324 2.10725 1.48587 2.00969 1.55561 1.92718C1.62006 1.84689 1.70185 1.78484 1.79383 1.74647C1.88607 1.72387 1.98188 1.72387 2.07413 1.74647H4.17623C4.33802 1.73426 4.49816 1.78804 4.62469 1.89708C4.75673 2.00355 4.84674 2.15943 4.87693 2.33384C4.89529 2.54313 4.93278 2.74996 4.98898 2.95132C5.0621 3.34793 5.17008 3.7362 5.31136 4.11094L4.33036 4.6079C4.24456 4.64516 4.16743 4.70228 4.10446 4.77515C4.04149 4.84803 3.99421 4.93488 3.96598 5.02959C3.8959 5.21292 3.8959 5.41856 3.96598 5.60189C4.97592 7.92212 6.71184 9.78764 8.87089 10.873C9.04148 10.9483 9.23283 10.9483 9.40343 10.873C9.57357 10.797 9.71273 10.6582 9.79578 10.4814L10.2303 9.4272C10.5928 9.5654 10.9625 9.68108 11.3374 9.7736L11.9119 9.87899C12.0664 9.92172 12.204 10.0168 12.3043 10.1501C12.4024 10.2889 12.4565 10.4578 12.4585 10.632L12.4865 12.9362ZM12.1502 8.41814C11.9893 8.40284 11.8298 8.37261 11.6737 8.32779C11.3639 8.25027 11.0595 8.14965 10.7627 8.02661C10.4381 7.89198 10.0784 7.89198 9.75378 8.02661C9.4346 8.16776 9.17508 8.43052 9.02502 8.76455L8.87089 9.11095C8.1849 8.70175 7.55323 8.19519 6.99297 7.60492C6.45141 7.00133 5.98076 6.32861 5.59157 5.60189L5.91395 5.43625C6.22478 5.27498 6.46928 4.9961 6.60063 4.65308C6.72591 4.30418 6.72591 3.9177 6.60063 3.56879C6.48885 3.24509 6.39984 2.91283 6.33436 2.57481C6.29282 2.41212 6.26469 2.24579 6.25028 2.0778C6.16428 1.54755 5.90603 1.06728 5.52152 0.722383C5.1265 0.375238 4.63036 0.188618 4.12012 0.195265H2.13015C1.83597 0.199237 1.54545 0.265786 1.27532 0.391056C1.00409 0.522254 0.760814 0.711907 0.560588 0.948278C0.359891 1.1917 0.211567 1.47964 0.126157 1.79165C0.0569058 2.10862 0.0569058 2.43855 0.126157 2.75552C0.5036 5.88922 1.8338 8.80114 3.90996 11.0387C5.9962 13.2661 8.70297 14.6994 11.6177 15.12H11.8979C12.4136 15.1153 12.9108 14.9123 13.2993 14.5477C13.5149 14.3284 13.6908 14.068 13.8179 13.7796C13.9344 13.4893 13.9963 13.1771 14 12.8609V10.6019C13.989 10.0797 13.8165 9.5762 13.5095 9.17116C13.2036 8.77166 12.7772 8.49994 12.3043 8.40312" fill="white"/>
</g>
<defs>
<clipPath id="clip0_1_188">
<rect width="14" height="15" fill="white" transform="translate(0 0.13501)"/>
</clipPath>
</defs>
</svg>
