<svg width="12" height="16" viewBox="0 0 12 16" fill="none" xmlns="http://www.w3.org/2000/svg">
<g clip-path="url(#clip0_1_184)">
<path d="M6 0.13501C4.4087 0.13501 2.88258 0.767151 1.75736 1.89237C0.632141 3.01759 0 4.54371 0 6.13501C0 10.185 5.2875 14.76 5.5125 14.955C5.64835 15.0712 5.82124 15.1351 6 15.1351C6.17876 15.1351 6.35165 15.0712 6.4875 14.955C6.75 14.76 12 10.185 12 6.13501C12 4.54371 11.3679 3.01759 10.2426 1.89237C9.11742 0.767151 7.5913 0.13501 6 0.13501ZM6 13.3725C4.4025 11.8725 1.5 8.64001 1.5 6.13501C1.5 4.94154 1.97411 3.79694 2.81802 2.95303C3.66193 2.10912 4.80653 1.63501 6 1.63501C7.19347 1.63501 8.33807 2.10912 9.18198 2.95303C10.0259 3.79694 10.5 4.94154 10.5 6.13501C10.5 8.64001 7.5975 11.88 6 13.3725ZM6 3.13501C5.40666 3.13501 4.82664 3.31096 4.33329 3.6406C3.83994 3.97025 3.45542 4.43878 3.22836 4.98696C3.0013 5.53514 2.94189 6.13834 3.05764 6.72028C3.1734 7.30222 3.45912 7.83677 3.87868 8.25633C4.29824 8.67589 4.83279 8.96161 5.41473 9.07737C5.99667 9.19312 6.59987 9.13371 7.14805 8.90665C7.69623 8.67959 8.16476 8.29507 8.49441 7.80172C8.82405 7.30837 9 6.72835 9 6.13501C9 5.33936 8.68393 4.5763 8.12132 4.01369C7.55871 3.45108 6.79565 3.13501 6 3.13501ZM6 7.63501C5.70333 7.63501 5.41332 7.54704 5.16665 7.38221C4.91997 7.21739 4.72771 6.98312 4.61418 6.70903C4.50065 6.43495 4.47094 6.13335 4.52882 5.84237C4.5867 5.5514 4.72956 5.28413 4.93934 5.07435C5.14912 4.86457 5.41639 4.72171 5.70736 4.66383C5.99834 4.60595 6.29994 4.63566 6.57403 4.74919C6.84811 4.86272 7.08238 5.05498 7.2472 5.30165C7.41203 5.54833 7.5 5.83834 7.5 6.13501C7.5 6.53283 7.34196 6.91437 7.06066 7.19567C6.77936 7.47697 6.39782 7.63501 6 7.63501Z" fill="white"/>
</g>
<defs>
<clipPath id="clip0_1_184">
<rect width="12" height="15" fill="white" transform="translate(0 0.13501)"/>
</clipPath>
</defs>
</svg>
