<svg width="24" height="24" viewBox="0 0 24 24" fill="none" xmlns="http://www.w3.org/2000/svg">
<g id="Frame">
<g id="Group">
<g id="Layer 2">
<path id="Vector" d="M11.4999 0C9.8188 0 8.17541 0.498516 6.7776 1.43251C5.37978 2.3665 4.29031 3.69402 3.64697 5.24719C3.00362 6.80036 2.83529 8.50943 3.16327 10.1583C3.49124 11.8071 4.30079 13.3217 5.48953 14.5104C6.67828 15.6992 8.19284 16.5087 9.84167 16.8367C11.4905 17.1646 13.1996 16.9963 14.7527 16.353C16.3059 15.7096 17.6334 14.6202 18.5674 13.2223C19.5014 11.8245 19.9999 10.1811 19.9999 8.5C19.9975 6.24642 19.1011 4.08585 17.5076 2.49233C15.9141 0.898803 13.7535 0.00247486 11.4999 0ZM14.6381 7.4137L11.0681 10.8383C10.91 10.9903 10.6993 11.0753 10.4799 11.0755C10.4564 11.0768 10.4329 11.0768 10.4094 11.0755C10.2892 11.0654 10.1726 11.0299 10.0672 10.9713C9.96186 10.9126 9.87017 10.8323 9.79824 10.7355L8.26824 8.6802C8.14932 8.49914 8.10402 8.27951 8.14158 8.06618C8.17914 7.85284 8.29674 7.6619 8.47034 7.53235C8.64395 7.40279 8.86046 7.34441 9.07567 7.36912C9.29087 7.39383 9.48852 7.49977 9.62824 7.6653L10.5828 8.9471L13.4583 6.18885C13.5389 6.11161 13.634 6.05099 13.738 6.01047C13.842 5.96995 13.953 5.95031 14.0646 5.95268C14.1762 5.95505 14.2862 5.97937 14.3884 6.02427C14.4906 6.06917 14.583 6.13376 14.6602 6.21435C14.7375 6.29494 14.7981 6.38996 14.8386 6.49398C14.8791 6.59799 14.8988 6.70897 14.8964 6.82058C14.894 6.93219 14.8697 7.04223 14.8248 7.14444C14.7799 7.24664 14.7153 7.33901 14.6347 7.41625L14.6381 7.4137Z" fill="#0DBDB4"/>
<path id="Vector_2" d="M5.54995 16.7789V22.0999C5.55051 22.4074 5.63447 22.709 5.79287 22.9725C5.95127 23.2361 6.17818 23.4517 6.44944 23.5965C6.7207 23.7413 7.02616 23.8098 7.33327 23.7947C7.64039 23.7797 7.93766 23.6816 8.19344 23.5109L11.4999 21.3094L14.8064 23.5109C15.0611 23.6837 15.3584 23.783 15.6658 23.798C15.9731 23.813 16.2787 23.7431 16.5489 23.5959C16.8217 23.4529 17.0499 23.2378 17.2088 22.974C17.3677 22.7102 17.4511 22.4079 17.4499 22.0999V16.7789C15.7174 18.0278 13.6357 18.6999 11.4999 18.6999C9.36416 18.6999 7.28253 18.0278 5.54995 16.7789Z" fill="#0DBDB4"/>
</g>
</g>
</g>
</svg>
