<svg width="25" height="24" viewBox="0 0 25 24" fill="none" xmlns="http://www.w3.org/2000/svg">
<g id="Frame" clip-path="url(#clip0_1_149)">
<g id="Group">
<path id="Vector" d="M12.9338 14.3953L10.9323 16.4016C9.61976 15.4219 8.54632 14.1656 7.78226 12.7172C6.99476 11.2406 6.60101 9.60938 6.60101 7.83281C6.60101 6.98438 6.70413 6.13594 6.91976 5.31563C7.00882 4.96875 7.11663 4.62656 7.23851 4.29375C7.37444 3.92344 6.92444 3.61875 6.62444 3.87187C5.57913 4.75312 4.69788 5.8125 4.01819 7.00312C3.07601 8.64844 2.60257 10.4813 2.60257 12.5016C2.60257 14.1891 2.94007 15.7547 3.61976 17.2031C4.28069 18.6234 5.22757 19.8984 6.40413 20.9344L4.40257 22.9359C4.15882 23.1797 4.15882 23.5734 4.40257 23.8172C4.51976 23.9344 4.67913 24 4.84319 24H13.3791C13.7213 24 14.0026 23.7234 14.0026 23.3766V14.8359C14.0026 14.4937 13.726 14.2125 13.3791 14.2125C13.2104 14.2125 13.051 14.2781 12.9338 14.3953ZM21.6994 6.80156C21.0338 5.38594 20.0916 4.11562 18.9338 3.06563L20.9354 1.06406C21.1791 0.820313 21.1791 0.426562 20.9354 0.182813C20.8182 0.065625 20.6588 0 20.4948 0H11.9588C11.6166 0 11.3354 0.28125 11.3354 0.623438V9.15937C11.3354 9.50156 11.6166 9.78281 11.9588 9.78281C12.1229 9.78281 12.2823 9.71719 12.3994 9.6L14.401 7.59844C15.7276 8.56406 16.8104 9.825 17.5698 11.2828C18.3479 12.7594 18.7369 14.3906 18.7369 16.1672C18.7369 17.0156 18.6385 17.8594 18.4369 18.6844C18.3526 19.0266 18.2494 19.3641 18.1323 19.6969C18.001 20.0672 18.451 20.3719 18.7463 20.1188C19.7776 19.2375 20.6448 18.1828 21.3198 17.0016C22.2666 15.3563 22.7354 13.5188 22.7354 11.4984C22.7354 9.81094 22.3885 8.24531 21.6994 6.80156Z" fill="#0DBDB4"/>
</g>
</g>
<defs>
<clipPath id="clip0_1_149">
<rect width="24" height="24" fill="white" transform="translate(0.666626)"/>
</clipPath>
</defs>
</svg>
