<svg width="24" height="24" viewBox="0 0 24 24" fill="none" xmlns="http://www.w3.org/2000/svg">
<g id="Frame" clip-path="url(#clip0_1_135)">
<g id="Group">
<g id="Layer 2">
<g id="Layer 1">
<g id="01.Russian ruble">
<path id="Vector" d="M14.8896 9.51022C14.8896 10.2585 14.7456 10.7328 14.4336 10.9699C14.1418 11.1893 13.5394 11.2987 12.6451 11.2987H10.765V7.7395H12.6451C13.5394 7.7395 14.1235 7.84942 14.4336 8.08654C14.7437 8.30398 14.8896 8.78014 14.8896 9.51022Z" fill="#0DBDB4"/>
<path id="Vector_2" d="M0 12C0 18.6274 5.37264 24 12 24C18.6274 24 24 18.6274 24 12C24 5.37264 18.6274 0 12 0C5.37264 0 0 5.37264 0 12ZM17.136 12.9778C16.26 13.6349 15.072 13.8173 13.0114 13.8173H10.765V14.9669H13.9589C14.16 14.9669 14.2512 15.0586 14.2512 15.241V16.537C14.2512 16.7198 14.16 16.811 13.9589 16.811H10.765V18.9096C10.765 19.1472 10.7102 19.2019 10.4914 19.2019H7.66224C7.44336 19.2019 7.38864 19.1472 7.38864 18.9096V16.8106H6C5.79936 16.8106 5.70816 16.7194 5.70816 16.5365V15.2405C5.70816 15.0581 5.79936 14.9664 6 14.9664H7.3872V13.1232H6C5.79936 13.1232 5.70816 13.032 5.70816 12.8496V11.5723C5.70816 11.3899 5.79936 11.2987 6 11.2987H7.3872V5.27568C7.3872 5.11152 7.4784 5.03856 7.6608 5.02032C9.44976 4.87632 11.2382 4.80144 13.0085 4.80144C15.0163 4.80144 16.403 5.12976 17.1514 5.76864C17.9194 6.40752 18.3034 7.63008 18.3034 9.41664C18.3029 11.244 18.0106 12.3206 17.136 12.9778Z" fill="#0DBDB4"/>
</g>
</g>
</g>
</g>
</g>
<defs>
<clipPath id="clip0_1_135">
<rect width="24" height="24" fill="white"/>
</clipPath>
</defs>
</svg>
