<svg width="25" height="24" viewBox="0 0 25 24" fill="none" xmlns="http://www.w3.org/2000/svg">
<g id="Frame" clip-path="url(#clip0_1_144)">
<g id="Group">
<path id="Layer 2" d="M21.8565 8.73539C21.6511 8.57634 21.491 8.36617 21.3922 8.12589C21.2934 7.8856 21.2594 7.6236 21.2935 7.36605C21.5379 5.3835 21.3666 4.21929 20.737 3.58754C20.1075 2.95906 18.9422 2.78884 16.9618 3.03216C16.7042 3.06562 16.4423 3.03117 16.2021 2.93222C15.9619 2.83327 15.7518 2.67326 15.5925 2.46806C14.2722 0.758291 13.2662 -0.00439453 12.3311 -0.00439453C11.3961 -0.00439453 10.389 0.759382 9.06982 2.46806C8.91024 2.67293 8.70004 2.83269 8.45992 2.93161C8.21981 3.03053 7.95806 3.06518 7.70048 3.03216C5.71793 2.78994 4.55481 2.96015 3.92524 3.58863C3.29567 4.21929 3.12437 5.3835 3.36878 7.36605C3.40303 7.6236 3.36906 7.88564 3.27025 8.12595C3.17145 8.36626 3.01128 8.57641 2.80577 8.73539C0.613728 10.4266 0.333313 11.3671 0.333313 11.9978C0.333313 12.6285 0.613728 13.569 2.80577 15.2602C3.01119 15.4193 3.1713 15.6294 3.2701 15.8697C3.36889 16.11 3.40292 16.372 3.36878 16.6296C3.12437 18.6121 3.29567 19.7763 3.92524 20.4081C4.55481 21.0355 5.71684 21.2046 7.70048 20.9634C7.95809 20.9301 8.21993 20.9646 8.46011 21.0635C8.70028 21.1625 8.91045 21.3224 9.06982 21.5275C10.3901 23.2373 11.3961 24 12.3311 24C13.2662 24 14.2733 23.2362 15.5925 21.5275C15.7515 21.3221 15.9617 21.1619 16.2019 21.0629C16.4422 20.9639 16.7042 20.9296 16.9618 20.9634C18.9433 21.2057 20.1075 21.0355 20.737 20.407C21.3666 19.7774 21.5379 18.6121 21.2935 16.6296C21.2593 16.372 21.2932 16.11 21.392 15.8697C21.4908 15.6293 21.651 15.4192 21.8565 15.2602C24.0486 13.569 24.329 12.6285 24.329 11.9978C24.329 11.3671 24.0486 10.4266 21.8565 8.73539ZM7.96671 9.27003C7.96671 8.94633 8.0627 8.6299 8.24254 8.36075C8.42238 8.0916 8.67799 7.88183 8.97705 7.75795C9.27611 7.63408 9.60519 7.60166 9.92267 7.66481C10.2402 7.72797 10.5318 7.88384 10.7607 8.11273C10.9896 8.34163 11.1454 8.63325 11.2086 8.95073C11.2717 9.26821 11.2393 9.59729 11.1155 9.89635C10.9916 10.1954 10.7818 10.451 10.5127 10.6309C10.2435 10.8107 9.92708 10.9067 9.60337 10.9067C9.1693 10.9067 8.75301 10.7343 8.44608 10.4273C8.13914 10.1204 7.96671 9.7041 7.96671 9.27003ZM10.5635 15.9531C10.4758 16.0699 10.3654 16.168 10.239 16.2413C10.1126 16.3147 9.97275 16.362 9.82775 16.3802C9.68274 16.3985 9.53554 16.3875 9.39488 16.3478C9.25422 16.3081 9.12296 16.2406 9.0089 16.1492C8.89485 16.0578 8.80032 15.9444 8.73092 15.8158C8.66152 15.6872 8.61867 15.5459 8.60492 15.4004C8.59116 15.2549 8.60678 15.1081 8.65084 14.9688C8.6949 14.8294 8.76651 14.7003 8.86142 14.5892L14.0987 8.04253C14.1865 7.92568 14.2969 7.82765 14.4233 7.75427C14.5497 7.68089 14.6895 7.63365 14.8345 7.61536C14.9796 7.59707 15.1268 7.60809 15.2674 7.64778C15.4081 7.68747 15.5393 7.75502 15.6534 7.84641C15.7674 7.9378 15.862 8.05117 15.9314 8.1798C16.0008 8.30843 16.0436 8.44969 16.0574 8.59519C16.0711 8.7407 16.0555 8.88748 16.0115 9.02684C15.9674 9.16619 15.8958 9.29527 15.8009 9.40642L10.5635 15.9531ZM15.0589 16.3622C14.7352 16.3622 14.4188 16.2662 14.1496 16.0864C13.8805 15.9066 13.6707 15.651 13.5468 15.3519C13.423 15.0528 13.3906 14.7238 13.4537 14.4063C13.5169 14.0888 13.6727 13.7972 13.9016 13.5683C14.1305 13.3394 14.4221 13.1835 14.7396 13.1204C15.0571 13.0572 15.3862 13.0896 15.6852 13.2135C15.9843 13.3374 16.2399 13.5471 16.4198 13.8163C16.5996 14.0854 16.6956 14.4019 16.6956 14.7256C16.6956 15.1596 16.5231 15.5759 16.2162 15.8829C15.9093 16.1898 15.493 16.3622 15.0589 16.3622Z" fill="#0DBDB4"/>
</g>
</g>
<defs>
<clipPath id="clip0_1_144">
<rect width="24" height="24" fill="white" transform="translate(0.333313)"/>
</clipPath>
</defs>
</svg>
