<svg width="36" height="37" viewBox="0 0 36 37" fill="none" xmlns="http://www.w3.org/2000/svg">
<rect y="0.412964" width="36" height="36" rx="9" fill="white"/>
<g clip-path="url(#clip0_41_406)">
<path d="M26.9788 13.383V13.3655C26.9788 13.1531 26.9639 12.931 26.9601 12.6816C26.9486 12.0961 26.7265 11.5363 26.3375 11.1131C25.9486 10.6899 25.4212 10.434 24.8596 10.3961C22.4259 10.2558 20.5539 9.43157 18.942 7.80071L18.9289 7.78707C18.6783 7.54648 18.3498 7.4129 18.0088 7.4129C17.6678 7.4129 17.3393 7.54648 17.0887 7.78707L17.0756 7.80071C15.4693 9.43157 13.5898 10.2558 11.1598 10.398C10.5953 10.4312 10.0635 10.6848 9.67072 11.1081C9.27791 11.5313 9.0529 12.0932 9.04061 12.6816C9.04061 12.929 9.02938 13.1531 9.02189 13.3655V13.4045C8.97509 15.9842 8.91519 19.1953 9.95793 22.1082C10.4991 23.6671 11.3691 25.0799 12.5039 26.2428C13.7863 27.5464 15.4693 28.581 17.5005 29.3195C17.568 29.343 17.6368 29.3626 17.7064 29.3779C17.9025 29.4169 18.1039 29.4169 18.2999 29.3779C18.3696 29.3628 18.4384 29.3433 18.5058 29.3195C20.537 28.579 22.2163 27.5444 23.4986 26.2409C24.6374 25.0767 25.51 23.661 26.0522 22.0985C27.0837 19.1816 27.0256 15.9667 26.9788 13.383ZM25.2228 21.8179C24.0809 25.0387 21.7501 27.2521 18.0977 28.581C18.0846 28.5869 18.0707 28.5909 18.0565 28.5927C18.0188 28.6004 17.98 28.6004 17.9423 28.5927C17.9281 28.5909 17.9143 28.5869 17.9011 28.581C14.245 27.2541 11.9105 25.0426 10.7723 21.8218C9.77446 19.0043 9.83624 15.9121 9.88117 13.1843V13.1707C9.88117 12.9349 9.89802 12.6894 9.90176 12.4205C9.90655 12.1465 10.0107 11.8846 10.1934 11.6873C10.376 11.49 10.6236 11.3718 10.8865 11.3566C12.2182 11.2987 13.5298 10.998 14.7617 10.4682C15.9385 9.94672 17.0095 9.1976 17.918 8.26055C17.9405 8.23999 17.9695 8.22866 17.9994 8.22866C18.0294 8.22866 18.0583 8.23999 18.0809 8.26055C18.99 9.19481 20.061 9.94126 21.2372 10.4604C22.469 10.9902 23.7806 11.2909 25.1124 11.3488C25.3752 11.3641 25.6228 11.4822 25.8055 11.6795C25.9881 11.8768 26.0923 12.1388 26.0971 12.4127C26.0971 12.6835 26.1083 12.929 26.1177 13.1629C26.1701 15.9004 26.2225 18.9946 25.2228 21.8179Z" fill="#30363A"/>
<path d="M17.9992 12.931C16.9573 12.931 15.9388 13.2525 15.0725 13.855C14.2061 14.4575 13.5309 15.3138 13.1322 16.3157C12.7335 17.3176 12.6292 18.42 12.8324 19.4836C13.0357 20.5472 13.5374 21.5241 14.2742 22.291C15.0109 23.0578 15.9496 23.58 16.9715 23.7915C17.9934 24.0031 19.0526 23.8945 20.0152 23.4795C20.9778 23.0645 21.8006 22.3617 22.3794 21.4601C22.9583 20.5584 23.2672 19.4983 23.2672 18.4139C23.2657 16.9602 22.7102 15.5665 21.7226 14.5386C20.735 13.5107 19.3959 12.9325 17.9992 12.931ZM17.9992 23.024C17.1231 23.0244 16.2666 22.7543 15.5379 22.248C14.8093 21.7417 14.2412 21.0218 13.9057 20.1795C13.5702 19.3371 13.4822 18.4101 13.6529 17.5157C13.8236 16.6214 14.2453 15.7997 14.8647 15.1548C15.4841 14.5099 16.2733 14.0706 17.1325 13.8926C17.9918 13.7146 18.8825 13.8057 19.6919 14.1546C20.5014 14.5035 21.1933 15.0944 21.6801 15.8525C22.1669 16.6107 22.4267 17.5021 22.4267 18.4139C22.4252 19.6358 21.9583 20.8072 21.1284 21.6713C20.2984 22.5355 19.1732 23.0219 17.9992 23.024Z" fill="#30363A"/>
<path d="M19.9367 16.9116L17.297 19.657L16.4359 18.7666C16.4037 18.7327 16.3654 18.7058 16.3231 18.6874C16.2808 18.6691 16.2355 18.6596 16.1897 18.6596C16.1439 18.6596 16.0986 18.6691 16.0563 18.6874C16.0141 18.7058 15.9757 18.7327 15.9435 18.7666C15.911 18.8001 15.8852 18.84 15.8675 18.884C15.8499 18.9279 15.8408 18.9751 15.8408 19.0228C15.8408 19.0704 15.8499 19.1176 15.8675 19.1616C15.8852 19.2056 15.911 19.2455 15.9435 19.279L17.0462 20.4266C17.1122 20.4932 17.2005 20.5304 17.2924 20.5304C17.3843 20.5304 17.4726 20.4932 17.5386 20.4266L20.4234 17.4241C20.456 17.3905 20.4818 17.3506 20.4994 17.3067C20.5171 17.2627 20.5261 17.2155 20.5261 17.1678C20.5261 17.1202 20.5171 17.073 20.4994 17.029C20.4818 16.985 20.456 16.9451 20.4234 16.9116C20.3577 16.8468 20.2706 16.8107 20.18 16.8107C20.0895 16.8107 20.0024 16.8468 19.9367 16.9116Z" fill="#30363A"/>
</g>
<defs>
<clipPath id="clip0_41_406">
<rect width="18" height="22" fill="white" transform="translate(9 7.41296)"/>
</clipPath>
</defs>
</svg>
