<svg width="36" height="37" viewBox="0 0 36 37" fill="none" xmlns="http://www.w3.org/2000/svg">
<rect y="0.412964" width="36" height="36" rx="9" fill="white"/>
<path d="M12.9506 26.7571H10.1935C9.82947 26.7558 9.4804 26.6096 9.22128 26.3498C8.96498 26.0899 8.82076 25.7372 8.82031 25.3694V17.9693C8.82061 17.7877 8.85618 17.6079 8.92499 17.4403C8.99379 17.2727 9.09448 17.1205 9.22128 16.9925C9.47954 16.7313 9.82916 16.5849 10.1935 16.5851H13.5361C13.7435 16.5851 13.9424 16.6686 14.0894 16.8172C14.2363 16.9658 14.3194 17.1675 14.3203 17.3781V25.3694C14.3175 25.7384 14.1712 26.0914 13.9133 26.3513C13.6554 26.6112 13.3068 26.7571 12.9435 26.7571H12.9506Z" stroke="#30363A" stroke-width="0.7" stroke-linejoin="round"/>
<path d="M14.3273 17.8255C14.3248 17.676 14.3642 17.5289 14.4408 17.4013C14.5175 17.2737 14.6282 17.1708 14.7602 17.1046L14.9873 16.9893C15.0776 16.9408 15.1499 16.8635 15.1931 16.7694L17.9431 10.7571C17.9713 10.6975 17.9859 10.6321 17.9856 10.566V8.14738C17.985 7.95844 18.0507 7.77545 18.1711 7.63139C18.2914 7.48733 18.4585 7.39165 18.6421 7.36159C18.7289 7.34708 18.8167 7.33985 18.9047 7.33997C19.405 7.33997 20.7356 8.59794 20.7356 10.1118C20.7356 11.7411 19.8592 14.0768 19.8485 14.1093C19.8244 14.1785 19.8159 14.2525 19.8237 14.3255C19.8344 14.3997 19.8623 14.4701 19.9053 14.531C19.9451 14.5925 20.0002 14.6422 20.065 14.6752C20.1305 14.7107 20.2036 14.7293 20.2779 14.7292H26.6011C26.9569 14.7161 27.3051 14.8353 27.5805 15.0645C27.8527 15.2965 28.0309 15.6226 28.0808 15.98C28.105 16.238 28.0565 16.4977 27.9409 16.7287C27.8253 16.9598 27.6474 17.1527 27.4279 17.2848C27.3597 17.3288 27.3036 17.3895 27.2647 17.4615C27.2259 17.5343 27.2075 17.6166 27.2114 17.6994C27.2155 17.7811 27.2399 17.8605 27.2824 17.93C27.3263 17.9992 27.3875 18.0552 27.4598 18.0923C27.6785 18.2033 27.8564 18.3827 27.9673 18.6041C28.0757 18.826 28.1105 19.0777 28.0664 19.3214C28.0222 19.565 27.9016 19.7876 27.7224 19.9558C27.543 20.1256 27.3136 20.2307 27.0695 20.255C26.9825 20.2654 26.9002 20.3003 26.8318 20.3559C26.7644 20.4114 26.714 20.4851 26.6863 20.5686C26.6614 20.6532 26.6614 20.7434 26.6863 20.8281C26.7094 20.9132 26.7548 20.9904 26.8176 21.0516C26.9335 21.1562 27.0256 21.2854 27.0873 21.43C27.1495 21.5829 27.1774 21.7479 27.1689 21.913C27.1639 22.1939 27.0578 22.4631 26.8708 22.67C26.6831 22.8709 26.4319 22.9984 26.1611 23.0304C26.0743 23.039 25.9918 23.0728 25.9234 23.1278C25.8569 23.184 25.8066 23.2575 25.7779 23.3404C25.7533 23.4251 25.7533 23.5153 25.7779 23.6C25.7987 23.6861 25.8444 23.764 25.9092 23.8234C26.0565 23.9612 26.1644 24.1368 26.2214 24.3317C26.2817 24.5243 26.2891 24.7299 26.2427 24.9264C26.1738 25.1876 26.02 25.4175 25.8063 25.5788C25.5909 25.7401 25.3287 25.8238 25.0611 25.8167H16.616C15.9829 25.793 15.3596 25.65 14.7779 25.395C14.6421 25.3321 14.5272 25.2305 14.4472 25.1025C14.3672 24.9746 14.3255 24.8257 14.3273 24.6741" stroke="#30363A" stroke-width="0.7" stroke-linejoin="round"/>
<path d="M12.383 19.4905C12.8513 19.4905 13.231 19.1048 13.231 18.6291C13.231 18.1533 12.8513 17.7676 12.383 17.7676C11.9146 17.7676 11.5349 18.1533 11.5349 18.6291C11.5349 19.1048 11.9146 19.4905 12.383 19.4905Z" stroke="#30363A" stroke-width="0.7" stroke-miterlimit="10"/>
</svg>
