<svg width="36" height="37" viewBox="0 0 36 37" fill="none" xmlns="http://www.w3.org/2000/svg">
<rect y="0.412964" width="36" height="36" rx="9" fill="white"/>
<path d="M10.5094 19.1711H9.25109C9.16865 19.1332 9.09441 19.0786 9.03281 19.0105C8.9712 18.9424 8.92348 18.8622 8.89248 18.7746C8.82402 18.5765 8.78995 18.3675 8.79182 18.1572C9.56924 18.1117 10.3485 18.1117 11.1259 18.1572C11.6354 18.1986 11.9417 18.3153 12.5614 18.4094C12.6164 18.4178 12.6271 18.4932 12.5759 18.515C11.9084 18.7995 11.2166 19.0192 10.5094 19.1711Z" stroke="#30363A" stroke-width="0.7"/>
<path d="M22.4346 18.515C22.3835 18.4932 22.3942 18.4178 22.4492 18.4095C23.0681 18.3153 23.3693 18.1986 23.8788 18.1572C24.6583 18.1117 25.4397 18.1117 26.2192 18.1572C26.2181 18.3673 26.1841 18.5757 26.1186 18.7746C26.0518 18.9488 25.9237 19.0905 25.7599 19.171H24.5017C23.794 19.02 23.102 18.8004 22.4346 18.515Z" stroke="#30363A" stroke-width="0.7"/>
<path d="M20.9404 19.7941C20.4119 21.2563 20.1476 21.5423 20.091 21.5943H15.1648C15.1082 21.5553 14.8503 21.2888 14.3092 19.7941C14.2905 19.7372 14.2905 19.6755 14.3092 19.6186C14.3168 19.5599 14.3384 19.5041 14.3721 19.4561L14.7559 18.9687C14.7977 18.9133 14.8516 18.8687 14.9132 18.8388C14.9725 18.8108 15.0367 18.7953 15.1019 18.7933H20.2043C20.2696 18.7944 20.3339 18.8099 20.393 18.8388C20.4537 18.8673 20.5059 18.9122 20.544 18.9687L20.9278 19.4561C20.963 19.5032 20.9848 19.5595 20.9907 19.6186C20.9879 19.6804 20.9706 19.7407 20.9404 19.7941Z" stroke="#30363A" stroke-width="0.7"/>
<path d="M25.8357 15.0958H9.40879M27.6602 17.1625L25.8357 15.2648C25.4016 14.3745 25.0115 13.6661 24.6844 13.1072C24.2539 12.4086 23.7767 11.7419 23.2562 11.1121L23.1933 11.0341C23.1723 11.0092 23.1432 10.993 23.1115 10.9886H23.0172C19.4316 10.6636 15.8255 10.6636 12.2399 10.9886H12.1456C12.1116 10.9915 12.0801 11.0078 12.0575 11.0341L12.0009 11.1121C11.4783 11.7418 10.999 12.4085 10.5664 13.1072C10.233 13.6661 9.84291 14.407 9.42138 15.2648L7.59057 17.1625C7.38178 17.3884 7.2647 17.6884 7.26341 18.0008V24.4542C7.26044 24.599 7.28626 24.743 7.33928 24.8771C7.39231 25.0112 7.47141 25.1327 7.5717 25.234C7.66859 25.3364 7.78402 25.4181 7.91143 25.4745C8.04167 25.528 8.18024 25.5566 8.32038 25.559H10.6482C10.9281 25.5531 11.1947 25.4341 11.3906 25.2275C11.4904 25.1268 11.5696 25.0065 11.6236 24.8737C11.6777 24.7409 11.7054 24.5982 11.7052 24.4542V24.1032H23.5582V24.4542C23.558 24.5982 23.5857 24.7409 23.6398 24.8737C23.6938 25.0065 23.773 25.1268 23.8728 25.2275C24.0687 25.4341 24.3353 25.5531 24.6152 25.559H26.943C27.0826 25.5581 27.2207 25.5289 27.3494 25.4729C27.4781 25.4169 27.5949 25.3353 27.693 25.2327C27.7912 25.1301 27.8688 25.0085 27.9214 24.875C27.9741 24.7414 28.0008 24.5984 28 24.4542V18.0008C27.9979 17.6861 27.8759 17.3848 27.6602 17.1625Z" stroke="#30363A" stroke-width="0.7"/>
</svg>
