<svg width="22" height="22" viewBox="0 0 22 22" fill="none" xmlns="http://www.w3.org/2000/svg">
<path d="M4.51284 9.85353C4.26182 9.13177 4.08005 8.39465 4.13487 7.61145C4.16949 7.12925 4.33972 6.71769 4.67153 6.37985C5.03219 6.01743 5.37265 5.63658 5.72754 5.26802C6.18919 4.78275 6.76913 4.78582 7.23077 5.26802C7.51642 5.56594 7.79917 5.87 8.08193 6.17407C8.35603 6.46584 8.63302 6.75762 8.90712 7.05247C9.38896 7.57153 9.39185 8.17658 8.91001 8.69257C8.56377 9.06113 8.22042 9.43276 7.86842 9.79518C7.77609 9.89039 7.76744 9.97024 7.81648 10.09C8.04731 10.6797 8.382 11.2049 8.75709 11.6963C9.51303 12.6853 10.3671 13.5637 11.3856 14.2425C11.6049 14.3868 11.8443 14.4943 12.0723 14.6264C12.1906 14.694 12.2685 14.6725 12.3637 14.568C12.707 14.1903 13.059 13.8186 13.411 13.447C13.8727 12.9617 14.4497 12.9587 14.9114 13.447C15.4769 14.0428 16.0395 14.6418 16.5993 15.2437C17.0696 15.7474 17.0667 16.3648 16.5935 16.8715C16.2732 17.2155 15.9357 17.5411 15.6356 17.9004C15.197 18.4226 14.6431 18.5946 14.0141 18.5577C13.0966 18.5055 12.2512 18.1799 11.4346 17.7592C9.62267 16.8224 8.07616 15.5232 6.78067 13.8831C5.82276 12.6669 5.03219 11.3462 4.51284 9.85353ZM18.3333 10.9531C18.3333 6.80983 15.1653 3.4375 11.2731 3.4375V4.86875C14.4238 4.86875 16.9888 7.59917 16.9888 10.9531H18.3333ZM14.4671 10.9531H15.8116C15.8116 8.29022 13.7746 6.12185 11.2731 6.12185V7.5531C12.1271 7.5531 12.9292 7.9063 13.5322 8.54821C14.1353 9.19012 14.4671 10.044 14.4671 10.9531Z" fill="black"/>
</svg>
