<svg width="85" height="46" viewBox="0 0 85 46" fill="none" xmlns="http://www.w3.org/2000/svg">
<g clip-path="url(#clip0_1_172)">
<path d="M63.2391 38.69C63.2911 38.69 63.3427 38.6796 63.3907 38.6594C63.4387 38.6391 63.4821 38.6095 63.5184 38.5722C63.5548 38.5349 63.5833 38.4908 63.6023 38.4423C63.6213 38.3938 63.6304 38.342 63.6291 38.29V36.99C63.6304 36.9379 63.6213 36.8861 63.6023 36.8376C63.5833 36.7892 63.5548 36.745 63.5184 36.7077C63.4821 36.6704 63.4387 36.6408 63.3907 36.6206C63.3427 36.6003 63.2911 36.5899 63.2391 36.59H53.2891V45.32H50.7891V34.19H63.6891C64.2559 34.1873 64.8008 34.4085 65.2053 34.8055C65.6098 35.2026 65.8412 35.7432 65.8491 36.31V38.52C65.8438 39.0884 65.6136 39.6317 65.2088 40.0309C64.804 40.43 64.2576 40.6526 63.6891 40.65H59.6391L65.899 45.27H61.7391L53.2891 38.69H63.2391Z" fill="white"/>
<path d="M36.881 36.54H48.881V34.19H36.1109C35.5451 34.1873 35.0012 34.4088 34.5983 34.8061C34.1954 35.2034 33.9662 35.7441 33.9609 36.31V43.12C33.9609 43.6902 34.1875 44.237 34.5907 44.6403C34.9939 45.0435 35.5407 45.27 36.1109 45.27H48.8409V42.92H36.8409C36.7821 42.9178 36.7243 42.9032 36.6714 42.8772C36.6185 42.8512 36.5717 42.8144 36.5339 42.7691C36.4962 42.7239 36.4684 42.6711 36.4524 42.6144C36.4364 42.5577 36.4325 42.4983 36.4409 42.44V40.9H47.6709V38.55H36.4809V37.02C36.4725 36.9616 36.4764 36.9022 36.4924 36.8455C36.5084 36.7888 36.5362 36.7361 36.5739 36.6908C36.6117 36.6455 36.6585 36.6087 36.7114 36.5827C36.7643 36.5567 36.8221 36.5422 36.881 36.54Z" fill="white"/>
<path d="M19.6191 34.1899V38.3499H29.5091V34.1899H31.9791V45.2699H29.5091V40.9899H19.6191V45.2699H17.1191V34.1899H19.6191Z" fill="white"/>
<path d="M0.480492 43.1199C0.479176 43.401 0.53325 43.6795 0.63958 43.9396C0.745911 44.1998 0.902423 44.4364 1.10021 44.6361C1.298 44.8357 1.53319 44.9945 1.79232 45.1032C2.05146 45.212 2.32947 45.2686 2.6105 45.2699H15.1405V42.6899H3.37051C3.26522 42.6874 3.16495 42.6444 3.09048 42.57C3.01601 42.4955 2.97305 42.3952 2.97051 42.2899V37.1299C2.97982 37.028 3.02521 36.9326 3.09853 36.8611C3.17186 36.7896 3.26831 36.7467 3.37051 36.7399H15.1405V34.1899H2.6105C2.04812 34.1925 1.50937 34.4164 1.11077 34.8131C0.712169 35.2099 0.485742 35.7476 0.480492 36.3099V43.1199Z" fill="white"/>
<path d="M75.4301 39.3199L80.7001 34.1899H84.3301L76.8801 41.4099V45.2699H73.8101V41.4399L66.3301 34.1899H69.9601L75.4301 39.3199Z" fill="white"/>
<path d="M59.9191 20.61C58.1091 20.92 56.069 21.2 53.709 21.43C50.259 21.77 46.149 21.91 42.399 21.94C38.649 21.97 34.5491 21.77 31.0891 21.43C28.7391 21.2 26.6991 20.92 24.8891 20.61C24.7391 20.61 24.7391 20.38 24.8891 20.38C27.5491 20.1 30.2191 19.79 32.8891 19.5H33.2391C34.2391 19.62 34.8491 19.67 35.7591 19.76C37.2391 19.84 39.3291 19.96 42.3891 19.96C45.4591 19.96 47.5491 19.84 49.0291 19.76C49.9291 19.67 50.5891 19.62 51.5191 19.5H51.8891C54.5591 19.79 57.2491 20.1 59.8891 20.38C60.0291 20.38 60.0291 20.58 59.8891 20.61H59.9191ZM30.9191 15.45C31.0014 15.3016 31.1059 15.1667 31.2291 15.05L32.6191 13.89C34.9898 11.8044 37.5209 9.90853 40.1891 8.22002C40.847 7.81371 41.5968 7.57985 42.3691 7.54002C43.1441 7.58198 43.8966 7.81563 44.5591 8.22002C47.217 9.92339 49.747 11.8184 52.1291 13.89C52.8591 14.49 53.2591 14.83 53.5091 15.05C53.6377 15.157 53.7374 15.2945 53.7991 15.45C53.8396 15.5494 53.8396 15.6607 53.7991 15.76C53.3857 16.8882 52.7304 17.9122 51.8791 18.76C51.1992 18.9709 50.4908 19.0755 49.7791 19.07C48.3891 19.18 45.9491 19.35 42.3191 19.35C38.6891 19.35 36.2591 19.18 34.8691 19.07C34.1573 19.0755 33.4489 18.9709 32.7691 18.76C31.9081 17.918 31.2484 16.8925 30.8391 15.76C30.8128 15.6584 30.8128 15.5517 30.8391 15.45H30.9191ZM61.4191 17.45C60.7391 16.83 59.7791 15.95 58.7291 15.01C57.2591 13.71 55.6091 12.23 54.2491 11.1C52.5092 9.61673 50.6934 8.22484 48.8091 6.93001C47.4631 5.90834 46.0535 4.97314 44.5891 4.13002C43.9124 3.74723 43.1464 3.55055 42.3691 3.56001C41.5947 3.54895 40.8315 3.7458 40.1591 4.13002C38.6887 4.9791 37.2696 5.91404 35.9091 6.93001C34.3791 8.01001 32.8491 9.12002 30.4991 11.1C29.1391 12.23 27.4991 13.71 26.0191 15.01C24.9691 15.95 24.0191 16.83 23.3291 17.45C21.6791 18.95 21.5691 19.09 21.5391 19.24C21.5536 19.4206 21.5905 19.5986 21.6491 19.77C21.7114 19.9607 21.7988 20.1424 21.9091 20.31C22.0069 20.448 22.1475 20.5499 22.3091 20.6C22.5715 20.7091 22.8473 20.7831 23.1291 20.82C23.6691 20.94 24.5391 21.14 27.0391 21.5C32.1195 22.1902 37.242 22.5244 42.3691 22.5C47.4995 22.5248 52.6253 22.1907 57.709 21.5C60.199 21.14 61.0791 20.94 61.5891 20.82C61.8811 20.7858 62.1671 20.7118 62.4391 20.6C62.5979 20.5446 62.737 20.4437 62.8391 20.31C62.9374 20.1359 63.0243 19.9555 63.0991 19.77C63.1631 19.601 63.1904 19.4204 63.1791 19.24C63.1791 19.09 63.0691 18.95 61.4191 17.45Z" fill="white"/>
<path d="M79.7693 13.3199C79.7542 12.3778 79.4349 11.4658 78.8592 10.7199C77.9065 9.49984 76.707 8.49459 75.3392 7.76988C72.6454 6.27491 69.7677 5.13864 66.7792 4.38991C60.8032 2.87311 54.6884 1.96844 48.5292 1.6899L50.6492 3.21989C59.1592 3.92989 64.8492 5.3799 68.3692 6.8199C72.1692 8.3499 73.4392 9.90988 73.6992 11.2999C73.7901 11.9543 73.6981 12.6212 73.4333 13.2266C73.1686 13.832 72.7415 14.3523 72.1992 14.7299C72.0459 14.8482 71.8818 14.952 71.7092 15.0399C70.7983 15.5784 69.8051 15.9635 68.7693 16.1799C67.7943 16.4736 66.7585 16.5012 65.7693 16.2599C64.9887 15.9911 64.266 15.5772 63.6393 15.0399C61.6393 13.6299 57.6392 10.4499 48.5092 3.0399C47.6457 2.32908 46.6776 1.75566 45.6393 1.33989C43.5395 0.540232 41.219 0.540232 39.1192 1.33989C38.0852 1.75827 37.1208 2.3315 36.2592 3.0399C27.1292 10.4099 23.1092 13.5899 21.1192 15.0399C20.4968 15.5781 19.7773 15.9922 18.9992 16.2599C18.01 16.5012 16.9742 16.4736 15.9992 16.1799C14.945 15.9617 13.9323 15.5769 12.9992 15.0399C12.8376 14.9494 12.6838 14.8457 12.5392 14.7299C11.9932 14.3544 11.5614 13.8354 11.2915 13.2302C11.0215 12.625 10.9238 11.957 11.0092 11.2999C11.2992 9.90988 12.5692 8.3499 16.3692 6.8199C19.8792 5.3799 25.5792 3.92989 34.0892 3.21989L36.2392 1.6899C30.0804 1.96516 23.9656 2.86648 17.9892 4.3799C14.9974 5.11807 12.1183 6.25492 9.42923 7.7599C8.05884 8.48079 6.85863 9.48664 5.90924 10.7099C5.32828 11.4543 5.00219 12.3659 4.97922 13.3099L1.20923 12.8899C1.26918 12.6689 1.34265 12.4518 1.42923 12.2399C2.3878 10.3452 3.87427 8.76842 5.70923 7.6999C9.3244 5.53669 13.255 3.95093 17.3592 2.99989C25.5471 1.05214 33.9434 0.118469 42.3592 0.219894C50.775 0.118773 59.1713 1.05244 67.3592 2.99989C71.4618 3.9562 75.3916 5.54164 79.0092 7.6999C80.8411 8.76288 82.3193 10.3419 83.2592 12.2399C83.3629 12.4482 83.4466 12.6658 83.5092 12.8899C83.5092 12.8899 79.7392 13.2899 79.7192 13.3099L79.7693 13.3199ZM-0.000762939 14.0299C0.0684691 15.5751 0.726899 17.0351 1.83923 18.1099C3.53653 19.8167 5.55092 21.1755 7.76923 22.1099C11.3563 23.7426 15.1218 24.9508 18.9892 25.7099C34.442 28.8431 50.3665 28.8431 65.8192 25.7099C69.6866 24.9508 73.4521 23.7426 77.0392 22.1099C79.2535 21.1681 81.2666 19.8103 82.9692 18.1099C83.5473 17.5958 84.0101 16.9651 84.3269 16.2593C84.6438 15.5535 84.8076 14.7886 84.8076 14.0149C84.8076 13.2412 84.6438 12.4763 84.3269 11.7705C84.0101 11.0647 83.5473 10.434 82.9692 9.91991C81.2454 8.21269 79.2081 6.85448 76.9692 5.91991C73.3867 4.29323 69.6286 3.08524 65.7693 2.3199C50.3165 -0.813339 34.392 -0.813339 18.9392 2.3199C15.073 3.08366 11.3081 4.29168 7.71924 5.91991C5.50715 6.86578 3.49481 8.22316 1.78922 9.91991C0.680248 10.9971 0.0224526 12.4556 -0.0507812 13.9999L-0.000762939 14.0299ZM61.9992 23.3299C49.0279 25.6767 35.7406 25.6767 22.7692 23.3299C18.6592 22.5399 7.76922 20.0399 5.41922 15.0499L10.8892 13.6599C11.1817 14.1943 11.5758 14.6665 12.0492 15.0499C13.0009 15.8145 14.1167 16.3484 15.3092 16.6099C16.3241 16.9428 17.3933 17.0785 18.4592 17.0099C19.6332 16.7734 20.7256 16.2358 21.6292 15.4499C21.7792 15.3099 26.3692 11.7899 29.4292 9.3499L33.1692 6.3499C35.1692 4.7399 36.5692 3.54989 37.7892 2.74989C39.1518 1.86215 40.743 1.38951 42.3692 1.38951C43.9955 1.38951 45.5867 1.86215 46.9492 2.74989C48.1992 3.54989 49.6092 4.7499 51.5992 6.3499C52.7292 7.2899 54.0892 8.3499 55.3392 9.3499C58.3992 11.7899 62.9892 15.3499 63.1292 15.4499C64.036 16.237 65.1319 16.7746 66.3092 17.0099C67.3653 17.0782 68.4246 16.9424 69.4292 16.6099C70.6324 16.3532 71.759 15.819 72.7192 15.0499C73.1764 14.6502 73.5679 14.1812 73.8792 13.6599C75.6892 14.1199 77.5092 14.5999 79.3492 15.0499C76.9692 20.0499 66.1092 22.5399 61.9992 23.3299Z" fill="white"/>
</g>
<defs>
<clipPath id="clip0_1_172">
<rect width="84.81" height="45.27" fill="white"/>
</clipPath>
</defs>
</svg>
