<svg width="144" height="20" viewBox="0 0 144 20" fill="none" xmlns="http://www.w3.org/2000/svg">
<g clip-path="url(#clip0_1_105)">
<path fill-rule="evenodd" clip-rule="evenodd" d="M68.4041 20L66.8377 0H74.4654L75.6368 12.0927L87.5823 0H97.2123L76.9035 20H68.4041Z" fill="black"/>
<path fill-rule="evenodd" clip-rule="evenodd" d="M122.888 20C120.749 20 119.346 19.5084 118.692 18.5393C118.216 17.823 118.161 16.868 118.583 15.7163L124.25 0H134.166C134.751 0 133.975 0.337079 133.975 0.337079C133.648 0.505618 130.706 2.9073 129.684 5.6882L126.579 14.2978C126.415 14.7472 126.415 15.0983 126.579 15.3371C126.879 15.7725 127.641 15.8708 128.241 15.8708H144L140.418 20H122.888Z" fill="black"/>
<path fill-rule="evenodd" clip-rule="evenodd" d="M48.3269 20L49.7026 16.1798H45.4801C42.5244 16.2219 39.9773 17.0084 38.5062 18.3427C37.9069 18.9185 37.0488 19.9298 37.0352 19.9438L36.9807 20H28.7537C28.7537 20 37.5255 11.3624 41.7207 7.2191C44.0091 4.95787 46.3791 3.25843 48.7491 2.12079C50.0703 1.47472 51.3371 1.03933 52.6447 0.758427C54.0749 0.407303 56.8808 0 62.2747 0C62.1657 0.294944 55.0556 20 55.0556 20H48.3405H48.3269ZM51.2554 12.4157L54.538 4.49438C53.4347 4.57865 51.4052 5.08427 49.6072 6.27809C47.605 7.61236 44.1997 11.3202 43.219 12.4017H51.269L51.2554 12.4157Z" fill="black"/>
<path fill-rule="evenodd" clip-rule="evenodd" d="M104.663 20L106.039 16.1798H101.816C98.8604 16.2219 96.3133 17.0084 94.8558 18.3427C94.2565 18.9185 93.3984 19.9298 93.3848 19.9438L93.3303 20H85.0897C85.0897 20 93.8615 11.3624 98.0567 7.2191C100.345 4.95787 102.715 3.25843 105.071 2.12079C106.393 1.47472 107.659 1.03933 108.967 0.758427C110.397 0.407303 113.203 0 118.597 0C118.488 0.294944 111.378 20 111.378 20H104.663ZM107.591 12.4157L110.874 4.49438C109.757 4.57865 107.728 5.08427 105.943 6.27809C103.941 7.61236 100.536 11.3202 99.555 12.4017H107.605L107.591 12.4157Z" fill="black"/>
<path fill-rule="evenodd" clip-rule="evenodd" d="M16.6175 19.9999C16.6175 19.9999 19.3689 14.0448 20.6084 11.3622C16.8627 11.4746 14.2611 11.8117 12.4767 13.1038C10.9648 14.1712 9.86152 15.9409 8.30874 19.8875L8.25426 19.9999H0L4.90352 9.39595L9.23496 -0.000115212H17.2032C17.2032 -0.000115212 14.5335 5.7864 13.4847 8.06168C16.0454 7.58415 21.5074 7.54202 22.3655 7.54202L25.8524 -0.0141602H34.1476L24.9126 19.9858H16.6175V19.9999Z" fill="black"/>
</g>
<defs>
<clipPath id="clip0_1_105">
<rect width="144" height="20" fill="white"/>
</clipPath>
</defs>
</svg>
